<svg width="89" height="88" viewBox="0 0 89 88" fill="none" xmlns="http://www.w3.org/2000/svg">
<path d="M55.8723 26.4L44.4991 37.796L33.1258 26.4L26.9342 32.604L38.3075 44L26.9342 55.396L33.1258 61.6L44.4991 50.204L55.8723 61.6L62.064 55.396L50.6907 44L62.064 32.604L55.8723 26.4ZM44.4991 0C20.2157 0 0.586914 19.668 0.586914 44C0.586914 68.332 20.2157 88 44.4991 88C68.7825 88 88.4113 68.332 88.4113 44C88.4113 19.668 68.7825 0 44.4991 0ZM44.4991 79.2C25.1338 79.2 9.36935 63.404 9.36935 44C9.36935 24.596 25.1338 8.8 44.4991 8.8C63.8644 8.8 79.6288 24.596 79.6288 44C79.6288 63.404 63.8644 79.2 44.4991 79.2Z" fill="#FF6161"/>
</svg>
