<svg width="120" height="121" viewBox="0 0 120 121" fill="none" xmlns="http://www.w3.org/2000/svg">
<path d="M78.2356 16.3368H41.7644L16 42.2327V78.8898L41.7644 104.786H78.2356L104 78.8898V42.2327L78.2356 16.3368ZM94.2222 74.8114L74.1778 94.9581H45.8222L25.7778 74.8114V46.3111L45.8222 26.1644H74.1778L94.2222 46.3111V74.8114Z" fill="#FF6C40"/>
<path d="M60.0002 78.9881C62.0252 78.9881 63.6668 77.3381 63.6668 75.3027C63.6668 73.2674 62.0252 71.6174 60.0002 71.6174C57.9751 71.6174 56.3335 73.2674 56.3335 75.3027C56.3335 77.3381 57.9751 78.9881 60.0002 78.9881Z" fill="#FF6C40"/>
<path d="M56.3335 42.1344H63.6668V67.932H56.3335V42.1344Z" fill="#FF6C40"/>
</svg>
